GENERAL

Complete name                    : 8MM 1999 720p HDTV x264-DNL.mkv
Format                           : Matroska
Format version                   : Version 2
File size                        : 4.37 GiB
Duration                         : 2h 3mn
Overall bit rate                 : 5 074 Kbps
Encoded date                     : UTC 2011-01-02 15:33:29
Writing application              : mkvmerge v3.2.0 ('Beginnings') built on Feb 12 2010 16:46:17
Writing library                  : libebml v0.7.9 + libmatroska v0.8.1

VIDEO

Format                           : AVC
Format/Info                      : Advanced Video Codec
Format profile                   : High@L5.1
Format settings, CABAC           : Yes
Format settings, ReFrames        : 9 frames
Codec ID                         : V_MPEG4/ISO/AVC
Duration                         : 2h 3mn
Bit rate                         : 4 687 Kbps
Width                            : 1 280 pixels
Height                           : 544 pixels
Display aspect ratio             : 2.35:1
Frame rate                       : 23.976 fps
Color space                      : YUV
Chroma subsampling               : 4:2:0
Bit depth                        : 8 bits
Scan type                        : Progressive
Bits/(Pixel*Frame)               : 0.281
Stream size                      : 3.95 GiB (90%)
Writing library                  : x264 core 54 svn-594
Encoding settings                : cabac=1 / ref=6 / deblock=1:-3:-3 / analyse=0x3:0x133 / me=umh / subme=7 / brdo=1 / mixed_ref=1 / me_range=16 / chroma_me=1 / trellis=0 / 8x8dct=1 / cqm=2 / deadzone=22,11 / chroma_qp_offset=0 / slices=2 / nr=0 / decimate=1 / mbaff=0 / bframes=3 / b_pyramid=1 / b_adapt=1 / b_bias=0 / direct=3 / wpredb=1 / bime=1 / keyint=250 / keyint_min=25 / scenecut=40 / rc=2pass / bitrate=4687 / ratetol=1.0 / rceq='blurCplx^(1-qComp)' / qcomp=0.60 / qpmin=10 / qpmax=51 / qpstep=4 / cplxblur=20.0 / qblur=0.5 / ip_ratio=1.40 / pb_ratio=1.30

AUDIO

Format                           : AC-3
Format/Info                      : Audio Coding 3
Mode extension                   : CM (complete main)
Codec ID                         : A_AC3
Duration                         : 2h 3mn
Bit rate mode                    : Constant
Bit rate                         : 384 Kbps
Channel(s)                       : 6 channels
Channel positions                : Front: L C R, Side: L R, LFE
Sampling rate                    : 48.0 KHz
Bit depth                        : 16 bits
Compression mode                 : Lossy
Stream size                      : 339 MiB (8%)
Language                         : English

SUBTITLES-Romanian external